<svg width="198" height="42" viewBox="0 0 198 42" fill="none" xmlns="http://www.w3.org/2000/svg">
<g clip-path="url(#clip0_165_60)">
<path d="M17.62 20.68C19.95 17.18 22.43 13.73 24.97 10.37C25.83 9.22998 30.35 3.03998 31.05 2.73998C33.69 1.60998 34.3 3.93998 34.54 5.94998C35.11 10.72 35.03 15.97 35.42 20.83C35.76 25.08 36.71 29.81 36.87 33.97C36.93 35.45 37.23 37.64 35.24 37.9C32.12 38.3 31.9 32.7 31.62 30.46C31.24 27.41 31 24.19 30.75 21.12C30.46 17.59 30.42 14.01 30.16 10.47C29.84 10.5 29.65 10.85 29.46 11.08C26.87 14.17 23.9 19.15 21.46 22.63C20.19 24.44 18.81 28.55 16.1 27C14.59 26.14 11.99 20 10.95 18.14C9.48999 15.54 7.83999 13.04 6.37999 10.45C6.03999 16.04 5.46999 21.64 5.06999 27.24C4.90999 29.47 5.22999 36.55 3.90999 38.04C3.31999 38.7 2.58999 38.82 1.73999 38.75C-1.33001 38.48 0.539994 31.13 0.689994 28.99C1.10999 22.83 1.57999 16.75 2.14999 10.6C2.31999 8.75998 1.74999 0.469976 5.79999 3.15998C7.53999 4.30998 11.76 11 13.07 13.11C13.49 13.8 17.24 20.92 17.61 20.67L17.62 20.68Z" fill="#F5E27E"/>
<path d="M41.63 39.27C40.15 37.86 41.97 34.84 42.43 33.22C41.08 33.37 38.99 33.24 38.68 31.54C38.11 28.37 43.62 29.69 44.33 28.84C47.75 20.39 52.41 12.5 56.2 4.22999C56.92 2.66999 56.81 0.599985 58.77 0.0699854C61.97 -0.780015 62.17 5.18999 62.85 7.38999C64.82 13.78 67.73 20.14 69.62 26.6C70.12 27.44 71.94 27.2 72.37 28.53C72.88 30.11 71.38 30.49 71.33 31.3C71.25 32.88 75.06 38 71.1 38.71C67.74 39.32 66.91 31.57 65.87 31.22C59.65 31.42 53.47 31.99 47.29 32.68C46.13 33.04 44.52 42 41.63 39.27ZM64.61 27.39L58.19 9.29999L49.14 28.56L64.6 27.39H64.61Z" fill="#F5E27E"/>
<path d="M106.27 0.909994C107.22 1.80999 106.87 3.31999 106.05 4.18999L93.19 16.73L92.94 17.28C95.76 20.13 97.67 23.67 99.97 26.9C101.94 29.67 107.68 35.77 107.21 39.18C107.07 40.22 106.11 41.09 105.03 41.07C103.12 41.03 101.13 36.4 99.99 34.76C98.6 32.77 96.97 30.93 95.6 28.93C93.61 26.03 92.12 22.8 89.86 20.09L83.2 26.87C82.54 30.11 82.54 33.63 82.1 36.84C81.5 41.26 77.05 40.97 77.16 36.59C77.31 30.73 79.31 23.7 79.79 17.6C80.09 13.87 79.81 9.87999 80.09 6.22999C80.22 4.55999 80.4 1.32999 82.8 2.03999C83.92 2.36999 84.11 5.16999 84.19 6.20999C84.52 10.89 83.93 15.7 84.03 20.37L102.55 1.55999C103.3 0.639994 105.35 0.039994 106.27 0.909994Z" fill="#F5E27E"/>
<path d="M116.27 18.34C120.95 13.9 126.04 9.92997 130.86 5.64997C132.45 4.23997 135.07 0.269974 137.44 1.68997C140.28 3.38997 134.86 7.87997 133.49 9.14997C130.32 12.1 126.73 14.68 123.42 17.46L122.99 18.16C127.19 21.52 130.97 25.4 135.1 28.83C136.72 30.18 142.26 33.33 142.21 35.41C142.17 37.17 140.6 37.64 139.11 37.07C138.1 36.68 134.15 33.51 133.05 32.62C128.41 28.84 124.48 24.25 119.91 20.43C119.22 21.22 116.68 22.68 116.34 23.51C115.44 25.69 116.16 31.25 115.97 33.94C115.88 35.16 115.66 38.3 114.3 38.7C112.55 39.21 111.49 37.89 111.29 36.28C110.76 31.85 111.56 26.99 111.6 22.57C111.65 16.36 111.5 10.16 111.37 3.95997C111.6 1.36997 114.39 0.169974 115.18 3.20997C115.68 5.12997 115.81 8.76997 115.96 10.89C116.14 13.33 116.03 15.88 116.26 18.33L116.27 18.34Z" fill="#F5E27E"/>
<path d="M148.72 10.95C152.35 9.86999 151.6 17.24 151.71 19.22C152.11 26.81 152.6 27.01 152.01 34.53C151.88 36.14 151.67 38.73 149.53 38.72C147.39 38.71 147.16 36.23 147.04 34.54C146.77 30.75 147.32 26.89 147.36 23.16C147.41 17.22 146.85 19.72 147.34 13.94C147.42 12.97 147.64 11.27 148.73 10.95H148.72Z" fill="#F5E27E"/>
<path d="M193.92 10.95C197.55 9.86999 196.8 17.24 196.91 19.22C197.31 26.81 197.8 27.01 197.21 34.53C197.08 36.14 196.87 38.73 194.73 38.72C192.59 38.71 192.36 36.23 192.24 34.54C191.97 30.75 192.52 26.89 192.56 23.16C192.61 17.22 192.05 19.72 192.54 13.94C192.62 12.97 192.84 11.27 193.93 10.95H193.92Z" fill="#F5E27E"/>
<path d="M187.41 2.35997C188.92 3.86997 185.77 7.05997 184.87 8.28997L169.1 21.99C171.74 23.55 174.22 25.41 176.66 27.27C179.36 29.34 184.17 32.75 186.32 35.12C187.33 36.24 188.11 38.38 186.32 39.2C185 39.8 183.91 38.98 182.85 38.3C177.22 34.71 171.47 28.48 165.75 24.46C165.03 23.96 163.64 23.82 163.33 22.8C162.76 20.9 164.45 19.67 165.6 18.48C171.71 13.79 177.6 7.24997 183.84 2.86997C184.73 2.24997 186.49 1.42997 187.42 2.34997L187.41 2.35997Z" fill="#F5E27E"/>
<path d="M159.53 38.98C158.24 37.79 158.63 29.61 158.59 27.52C158.5 21.77 158.47 16.06 158.59 10.33C158.63 8.51999 158.16 3.14999 159.3 1.98999C159.79 1.48999 160.84 1.59999 161.37 1.97999C162.19 2.55999 162.56 7.30999 162.66 8.56999C163.08 13.89 162.79 19.29 162.94 24.63C163.05 28.42 163.88 32.5 163.55 36.3C163.35 38.52 161.46 40.77 159.53 38.98Z" fill="#F5E27E"/>
<path d="M151.21 6.75998L151.9 5.70998C152.08 5.42998 152.18 5.11998 152.19 4.79998C152.26 4.46998 152.25 4.14998 152.15 3.81998C152.07 3.49998 151.93 3.21998 151.71 2.97998C151.54 2.70998 151.31 2.49998 151.02 2.34998L150.43 2.09998C149.99 1.97998 149.56 1.97998 149.12 2.09998L148.53 2.34998C148.16 2.56998 147.87 2.85998 147.65 3.22998L146.96 4.27998C146.78 4.55998 146.68 4.86998 146.67 5.18998C146.6 5.51998 146.61 5.83998 146.71 6.16998C146.79 6.48998 146.93 6.76998 147.15 7.00998C147.32 7.27998 147.55 7.48998 147.84 7.63998L148.43 7.88998C148.87 8.00998 149.3 8.00998 149.74 7.88998L150.33 7.63998C150.7 7.41998 150.99 7.12998 151.21 6.75998Z" fill="#F5E27E"/>
<path d="M196.73 3.21999L195.98 2.23999C195.77 1.97999 195.52 1.78999 195.22 1.67999C194.94 1.50999 194.63 1.41999 194.29 1.40999C193.97 1.37999 193.66 1.42999 193.37 1.54999C193.07 1.62999 192.79 1.76999 192.56 1.98999L192.14 2.45999C191.89 2.82999 191.75 3.22999 191.72 3.67999L191.76 4.30999C191.85 4.71999 192.03 5.08999 192.3 5.40999L193.05 6.38999C193.26 6.64999 193.51 6.83999 193.81 6.94999C194.09 7.11999 194.4 7.20999 194.74 7.21999C195.06 7.24999 195.37 7.19999 195.66 7.07999C195.96 6.99999 196.24 6.85999 196.47 6.63999L196.89 6.16999C197.14 5.79999 197.28 5.39999 197.31 4.94999L197.27 4.31999C197.18 3.90999 197 3.53999 196.73 3.21999Z" fill="#F5E27E"/>
</g>
<defs>
<clipPath id="clip0_165_60">
<rect width="197.48" height="41.07" fill="white"/>
</clipPath>
</defs>
</svg>
